<?xml version="1.0" encoding="utf-8"?>
<!DOCTYPE svg PUBLIC "-//W3C//DTD SVG 20010904//EN" "http://www.w3.org/TR/2001/REC-SVG-20010904/DTD/svg10.dtd">
<svg version="1.0" xmlns="http://www.w3.org/2000/svg" width="256pt" height="256pt" viewBox="0 0 256 256" style="" preserveAspectRatio="xMidYMid meet">
<g fill="#00C188FF" stroke="#00C188FF">
<path d="M 39.972 1.877 C 21.024 7.941 6.319 23.160 1.489 41.703 C 0.229 46.540 0.001 59.902 0.006 128.460 C 0.009 183.440 0.359 210.786 1.093 213.500 C 2.768 219.692 7.157 229.021 8.116 228.428 C 8.590 228.136 8.723 228.557 8.413 229.366 C 7.436 231.912 21.117 245.288 28.861 249.358 C 41.923 256.222 38.597 256.000 128.529 256.000 C 217.765 256.000 213.582 256.267 226.485 249.755 C 234.748 245.584 244.999 235.433 249.395 227.068 C 256.216 214.087 256.000 217.347 256.000 127.471 C 256.000 37.598 256.312 42.206 249.327 28.840 C 244.962 20.486 234.708 10.396 226.242 6.122 C 213.761 -0.178 216.588 -0.005 127.040 0.054 C 51.881 0.103 45.067 0.246 39.972 1.877 M 89.923 138.077 C 92.230 140.384 93.004 142.073 93.017 144.827 C 93.075 157.009 99.128 171.330 107.861 179.945 C 116.516 188.484 128.832 194.000 139.242 194.000 C 147.005 194.000 153.000 198.793 153.000 205.000 C 153.000 208.472 150.164 212.864 146.798 214.604 C 139.976 218.132 117.333 213.112 105.276 205.400 C 85.776 192.926 73.524 172.533 72.265 150.453 L 71.749 141.405 74.951 138.203 C 77.572 135.582 78.943 135.000 82.500 135.000 C 86.020 135.000 87.431 135.585 89.923 138.077 M 210.647 104.926 C 217.000 108.800 217.443 119.654 211.927 136.288 C 203.016 163.158 178.423 182.140 150.453 183.735 L 141.405 184.251 138.203 181.049 C 135.582 178.428 135.000 177.057 135.000 173.500 C 135.000 167.671 139.356 163.008 144.827 162.983 C 151.177 162.953 161.502 160.280 168.063 156.968 C 182.668 149.596 193.876 132.187 193.976 116.718 C 194.013 110.886 196.433 106.149 200.213 104.507 C 204.668 102.571 206.933 102.662 210.647 104.926 M 117.923 75.077 C 120.415 77.569 121.000 78.980 121.000 82.500 C 121.000 88.329 116.644 92.992 111.173 93.017 C 104.956 93.047 94.548 95.694 88.378 98.816 C 73.256 106.466 64.118 120.111 62.113 138.038 C 61.045 147.581 59.349 150.516 53.969 152.127 C 48.440 153.784 43.526 151.504 41.338 146.266 C 38.136 138.602 42.972 117.201 50.600 105.276 C 57.804 94.014 70.534 82.748 81.571 77.865 C 88.964 74.595 100.115 72.113 107.673 72.055 C 114.384 72.004 115.045 72.198 117.923 75.077 M 136.268 44.036 C 146.584 47.493 154.071 52.036 162.337 59.856 C 174.467 71.334 182.478 87.740 183.716 103.640 C 184.396 112.367 183.693 115.453 180.314 118.585 C 174.120 124.325 163.022 119.579 162.983 111.173 C 162.925 98.991 156.872 84.670 148.139 76.055 C 139.484 67.516 127.168 62.000 116.758 62.000 C 108.995 62.000 103.000 57.207 103.000 51.000 C 103.000 47.738 105.746 43.209 108.763 41.497 C 112.809 39.200 125.266 40.350 136.268 44.036 "/></g>
<g fill="#FFFFFFFF" stroke="#FFFFFFFF">
<path d="M 200.250 104.621 C 198.463 105.517 197.000 106.831 197.000 107.542 C 197.000 108.252 196.444 109.019 195.764 109.245 C 195.022 109.493 194.395 112.024 194.197 115.579 C 193.703 124.427 193.400 126.153 191.624 130.218 C 190.731 132.263 190.000 134.218 190.000 134.564 C 190.000 134.909 189.069 136.498 187.932 138.096 C 186.794 139.693 186.232 141.014 186.682 141.030 C 187.132 141.047 186.713 141.519 185.750 142.080 C 184.788 142.641 184.000 143.482 184.000 143.950 C 184.000 146.549 167.644 159.000 164.230 159.000 C 163.554 159.000 163.000 159.436 163.000 159.969 C 163.000 160.501 162.325 160.678 161.500 160.362 C 160.675 160.045 160.000 160.188 160.000 160.679 C 160.000 161.170 159.213 161.617 158.250 161.673 C 152.189 162.023 143.117 163.308 140.941 164.125 C 135.611 166.124 133.602 174.190 137.057 179.721 C 139.629 183.837 142.080 184.215 158.000 182.951 C 158.825 182.886 160.175 182.571 161.000 182.252 C 162.876 181.527 162.745 181.561 167.250 180.660 C 169.313 180.247 171.000 179.555 171.000 179.121 C 171.000 178.688 171.563 178.333 172.250 178.333 C 174.259 178.332 181.000 174.861 181.000 173.827 C 181.000 173.307 181.393 173.125 181.874 173.422 C 182.355 173.719 183.953 172.846 185.426 171.481 C 186.898 170.117 188.341 169.000 188.632 169.000 C 188.922 169.000 191.860 166.300 195.160 163.000 C 198.460 159.700 200.849 157.000 200.469 157.000 C 200.089 157.000 200.681 156.213 201.784 155.250 C 204.217 153.126 209.529 144.006 208.345 143.985 C 207.880 143.976 208.020 143.639 208.655 143.234 C 211.438 141.463 215.379 125.060 215.458 114.920 C 215.488 111.113 214.985 109.847 212.478 107.420 C 210.819 105.814 208.795 104.333 207.981 104.128 C 207.166 103.924 205.825 103.584 205.000 103.374 C 204.175 103.164 202.038 103.725 200.250 104.621 "/></g>
<g fill="#FFFFFFFF" stroke="#FFFFFFFF">
<path d="M 100.088 72.945 C 99.315 73.424 98.072 73.581 97.328 73.296 C 96.584 73.010 95.236 73.389 94.334 74.138 C 93.431 74.887 92.528 75.339 92.326 75.142 C 91.662 74.495 85.000 76.073 85.000 76.879 C 85.000 77.312 84.438 77.667 83.750 77.667 C 81.741 77.668 75.000 81.139 75.000 82.173 C 75.000 82.693 74.607 82.875 74.126 82.578 C 73.645 82.281 72.047 83.154 70.574 84.519 C 69.102 85.883 67.659 87.000 67.368 87.000 C 67.078 87.000 64.170 89.670 60.906 92.934 C 54.535 99.305 47.756 108.797 48.601 110.163 C 48.885 110.624 48.615 111.000 48.000 111.000 C 47.385 111.000 47.160 111.450 47.500 112.000 C 47.840 112.550 47.698 113.000 47.184 113.000 C 44.937 113.000 40.593 131.488 40.541 141.271 C 40.519 145.370 40.969 146.465 43.733 149.048 C 45.502 150.701 47.073 151.976 47.225 151.880 C 47.376 151.785 48.501 152.024 49.724 152.412 C 53.087 153.480 58.571 150.423 60.469 146.424 C 61.362 144.543 62.079 141.090 62.062 138.752 C 62.020 132.746 62.468 129.827 63.817 127.326 C 64.462 126.130 65.117 124.314 65.273 123.291 C 65.430 122.268 66.588 119.984 67.847 118.215 C 69.106 116.447 69.768 114.986 69.318 114.970 C 68.868 114.953 69.288 114.481 70.250 113.920 C 71.213 113.359 72.000 112.518 72.000 112.050 C 72.000 109.138 87.360 97.857 93.250 96.443 C 94.763 96.080 96.000 95.478 96.000 95.106 C 96.000 94.733 96.788 94.372 97.750 94.303 C 112.079 93.277 114.480 92.677 117.758 89.302 C 120.228 86.758 120.981 85.150 120.838 82.718 C 120.635 79.241 118.197 73.470 117.307 74.359 C 117.007 74.659 116.190 74.333 115.492 73.635 C 114.023 72.166 102.205 71.637 100.088 72.945 "/></g>
<g fill="#FFFFFFFF" stroke="#FFFFFFFF">
<path d="M 77.442 136.701 C 76.688 137.455 75.830 138.055 75.536 138.036 C 75.241 138.016 75.016 138.241 75.036 138.536 C 75.055 138.830 74.430 139.712 73.647 140.496 C 72.608 141.535 72.309 143.894 72.541 149.210 C 72.937 158.250 73.027 159.136 73.748 161.000 C 74.473 162.876 74.439 162.745 75.340 167.250 C 75.753 169.313 76.445 171.000 76.879 171.000 C 77.312 171.000 77.667 171.563 77.667 172.250 C 77.668 174.259 81.139 181.000 82.173 181.000 C 82.693 181.000 82.875 181.393 82.578 181.874 C 82.281 182.355 83.154 183.953 84.519 185.426 C 85.883 186.898 87.000 188.382 87.000 188.724 C 87.000 189.475 98.200 200.500 98.963 200.500 C 99.258 200.500 100.513 201.513 101.750 202.750 C 102.988 203.988 104.675 205.000 105.500 205.000 C 106.325 205.000 107.000 205.525 107.000 206.167 C 107.000 206.808 107.279 207.055 107.619 206.714 C 107.960 206.374 108.896 206.753 109.700 207.557 C 110.504 208.361 111.575 208.763 112.081 208.450 C 112.586 208.138 113.000 208.302 113.000 208.816 C 113.000 211.112 131.752 215.459 141.335 215.384 C 145.479 215.351 146.606 214.880 149.216 212.088 C 151.514 209.629 152.287 207.827 152.368 204.744 C 152.432 202.302 151.977 200.492 151.238 200.246 C 150.557 200.019 150.000 199.196 150.000 198.417 C 150.000 197.638 149.363 197.000 148.583 197.000 C 147.804 197.000 146.981 196.444 146.755 195.764 C 146.502 195.007 143.850 194.387 139.921 194.167 C 129.437 193.578 129.000 193.527 129.000 192.880 C 129.000 192.539 126.881 191.667 124.291 190.942 C 121.702 190.217 118.889 189.029 118.041 188.303 C 117.194 187.578 116.163 186.987 115.750 186.992 C 115.338 186.996 114.195 186.213 113.211 185.250 C 112.227 184.288 109.831 182.120 107.886 180.434 C 104.287 177.314 97.000 166.467 97.000 164.230 C 97.000 163.554 96.564 163.000 96.031 163.000 C 95.499 163.000 95.322 162.325 95.638 161.500 C 95.955 160.675 95.791 160.000 95.274 160.000 C 94.756 160.000 94.282 159.438 94.219 158.750 C 94.156 158.063 93.829 154.350 93.491 150.500 C 92.835 143.023 91.355 138.000 89.807 138.000 C 89.285 138.000 88.197 137.339 87.389 136.532 C 85.585 134.728 79.308 134.835 77.442 136.701 "/></g>
<g fill="#FFFFFFFF" stroke="#FFFFFFFF">
<path d="M 111.010 40.781 C 109.068 41.492 104.623 46.123 104.062 48.019 C 103.247 50.774 103.727 55.409 104.867 55.789 C 105.490 55.997 106.000 56.804 106.000 57.583 C 106.000 58.363 106.638 59.000 107.417 59.000 C 108.196 59.000 109.019 59.556 109.245 60.236 C 109.498 60.993 112.150 61.613 116.079 61.833 C 126.607 62.424 127.000 62.473 127.000 63.171 C 127.000 63.738 130.151 64.733 134.611 65.573 C 135.223 65.688 136.700 66.619 137.894 67.641 C 139.088 68.664 140.275 69.388 140.532 69.250 C 140.790 69.113 141.805 69.788 142.789 70.750 C 143.773 71.713 146.169 73.880 148.114 75.566 C 151.713 78.686 159.000 89.533 159.000 91.770 C 159.000 92.446 159.436 93.000 159.969 93.000 C 160.501 93.000 160.678 93.675 160.362 94.500 C 160.045 95.325 160.188 96.000 160.680 96.000 C 161.172 96.000 161.694 97.013 161.840 98.250 C 161.986 99.488 162.249 101.400 162.425 102.500 C 162.601 103.600 162.802 106.675 162.872 109.333 C 162.982 113.477 163.509 114.661 166.563 117.627 C 169.672 120.646 170.641 121.036 174.168 120.683 C 176.391 120.461 178.550 119.728 178.967 119.054 C 179.383 118.380 180.011 117.868 180.362 117.915 C 180.713 117.962 180.984 117.759 180.964 117.464 C 180.945 117.170 181.570 116.288 182.353 115.504 C 183.392 114.465 183.691 112.106 183.459 106.790 C 183.063 97.750 182.973 96.864 182.252 95.000 C 181.527 93.124 181.561 93.255 180.660 88.750 C 180.247 86.688 179.555 85.000 179.121 85.000 C 178.688 85.000 178.333 84.438 178.333 83.750 C 178.332 81.741 174.861 75.000 173.827 75.000 C 173.307 75.000 173.125 74.607 173.422 74.126 C 173.719 73.645 172.846 72.047 171.481 70.574 C 170.117 69.102 168.997 67.583 168.993 67.198 C 168.985 66.349 157.462 55.000 156.607 55.000 C 156.273 55.000 155.100 54.100 154.000 53.000 C 152.900 51.900 151.325 51.000 150.500 51.000 C 149.675 51.000 149.000 50.523 149.000 49.941 C 149.000 49.359 148.550 49.160 148.000 49.500 C 147.450 49.840 147.000 49.615 147.000 49.000 C 147.000 48.385 146.550 48.160 146.000 48.500 C 145.450 48.840 145.000 48.615 145.000 48.000 C 145.000 47.385 144.550 47.160 144.000 47.500 C 143.450 47.840 143.000 47.698 143.000 47.184 C 143.000 46.081 131.229 42.232 125.500 41.461 C 118.328 40.496 112.530 40.224 111.010 40.781 "/></g>
</svg>
